<?xml version="1.0" encoding="UTF-8"?>
<svg id="Layer_2" data-name="Layer 2" xmlns="http://www.w3.org/2000/svg" xmlns:xlink="http://www.w3.org/1999/xlink" viewBox="0 0 47.43 47.43">
  <defs>
    <style>
      .cls-1 {
        fill: #fff;
      }

      .cls-2 {
        fill: url(#Degradado_sin_nombre_2);
      }
    </style>
    <radialGradient id="Degradado_sin_nombre_2" data-name="Degradado sin nombre 2" cx="-1.19" cy="47.58" fx="-1.19" fy="47.58" r="87.69" gradientUnits="userSpaceOnUse">
      <stop offset="0" stop-color="#f5ec53"/>
      <stop offset=".24" stop-color="#e48244"/>
      <stop offset=".4" stop-color="#d05667"/>
      <stop offset=".49" stop-color="#c84278"/>
      <stop offset="1" stop-color="#192cfa"/>
    </radialGradient>
  </defs>
  <g id="Capa_1" data-name="Capa 1">
    <g>
      <rect class="cls-2" width="47.43" height="47.43" rx="8.47" ry="8.47"/>
      <g>
        <path class="cls-1" d="m23.71,13.05c3.47,0,3.88.01,5.25.08,1.27.06,1.96.27,2.41.45.61.24,1.04.52,1.49.97.46.46.74.89.97,1.49.18.46.39,1.15.45,2.41.06,1.37.08,1.78.08,5.25s-.01,3.88-.08,5.25c-.06,1.27-.27,1.96-.45,2.41-.24.61-.52,1.04-.97,1.5s-.89.74-1.49.97c-.46.18-1.15.39-2.41.45-1.37.06-1.78.08-5.25.08s-3.88-.01-5.25-.08c-1.27-.06-1.96-.27-2.41-.45-.61-.24-1.04-.52-1.5-.97-.45-.46-.74-.89-.97-1.5-.18-.46-.39-1.15-.45-2.41-.06-1.37-.08-1.78-.08-5.25s.01-3.88.08-5.25c.06-1.27.27-1.96.45-2.41.24-.61.52-1.04.97-1.49.46-.46.89-.74,1.5-.97.46-.18,1.15-.39,2.41-.45,1.37-.06,1.78-.08,5.25-.08m0-2.34c-3.53,0-3.97.02-5.36.08-1.38.06-2.33.28-3.16.6-.86.33-1.58.78-2.3,1.5-.72.72-1.17,1.45-1.5,2.3-.32.83-.54,1.77-.6,3.16-.06,1.39-.08,1.83-.08,5.36s.01,3.97.08,5.36c.06,1.38.28,2.33.6,3.16.33.85.78,1.58,1.5,2.3.72.72,1.45,1.17,2.3,1.5.83.32,1.77.54,3.16.6,1.39.06,1.83.08,5.36.08s3.97-.01,5.36-.08c1.38-.06,2.33-.28,3.16-.6.86-.33,1.58-.78,2.3-1.5s1.17-1.45,1.5-2.3c.32-.83.54-1.77.6-3.16.06-1.39.08-1.83.08-5.36s-.01-3.97-.08-5.36c-.06-1.38-.28-2.33-.6-3.16-.33-.85-.78-1.58-1.5-2.3-.72-.72-1.45-1.17-2.3-1.5-.83-.32-1.77-.54-3.16-.6-1.39-.06-1.83-.08-5.36-.08"/>
        <path class="cls-1" d="m23.71,17.04c-3.69,0-6.68,2.99-6.68,6.68s2.99,6.68,6.68,6.68,6.68-2.99,6.68-6.68-2.99-6.68-6.68-6.68m0,11.01c-2.39,0-4.33-1.94-4.33-4.33s1.94-4.33,4.33-4.33,4.33,1.94,4.33,4.33-1.94,4.33-4.33,4.33"/>
        <path class="cls-1" d="m32.21,16.77c0,.86-.7,1.56-1.56,1.56s-1.56-.7-1.56-1.56.7-1.56,1.56-1.56,1.56.7,1.56,1.56"/>
      </g>
    </g>
  </g>
</svg>